<mxfile host="Electron" agent="Mozilla/5.0 (Macintosh; Intel Mac OS X 10_15_7) AppleWebKit/537.36 (KHTML, like Gecko) draw.io/26.1.1 Chrome/132.0.6834.210 Electron/34.3.3 Safari/537.36" version="26.1.1">
  <diagram name="Page-1" id="KJd2TizQRPchvsS-IZkf">
    <mxGraphModel dx="1158" dy="748" grid="1" gridSize="10" guides="1" tooltips="1" connect="1" arrows="1" fold="1" page="1" pageScale="1" pageWidth="827" pageHeight="1169" math="0" shadow="0">
      <root>
        <mxCell id="0" />
        <mxCell id="1" parent="0" />
        <mxCell id="pzvjAxI7eEXyAjbACt1s-1" value="User" style="swimlane;fontStyle=1;align=center;verticalAlign=top;childLayout=stackLayout;horizontal=1;startSize=29.818181818181817;horizontalStack=0;resizeParent=1;resizeParentMax=0;resizeLast=0;collapsible=0;marginBottom=0;" parent="1" vertex="1">
          <mxGeometry x="704" y="20" width="165" height="337.8181818181818" as="geometry" />
        </mxCell>
        <mxCell id="pzvjAxI7eEXyAjbACt1s-2" value="+int user_id" style="text;strokeColor=none;fillColor=none;align=left;verticalAlign=top;spacingLeft=4;spacingRight=4;overflow=hidden;rotatable=0;points=[[0,0.5],[1,0.5]];portConstraint=eastwest;" parent="pzvjAxI7eEXyAjbACt1s-1" vertex="1">
          <mxGeometry y="29.818181818181817" width="165" height="30" as="geometry" />
        </mxCell>
        <mxCell id="pzvjAxI7eEXyAjbACt1s-3" value="+string name" style="text;strokeColor=none;fillColor=none;align=left;verticalAlign=top;spacingLeft=4;spacingRight=4;overflow=hidden;rotatable=0;points=[[0,0.5],[1,0.5]];portConstraint=eastwest;" parent="pzvjAxI7eEXyAjbACt1s-1" vertex="1">
          <mxGeometry y="59.81818181818181" width="165" height="30" as="geometry" />
        </mxCell>
        <mxCell id="pzvjAxI7eEXyAjbACt1s-4" value="+string email" style="text;strokeColor=none;fillColor=none;align=left;verticalAlign=top;spacingLeft=4;spacingRight=4;overflow=hidden;rotatable=0;points=[[0,0.5],[1,0.5]];portConstraint=eastwest;" parent="pzvjAxI7eEXyAjbACt1s-1" vertex="1">
          <mxGeometry y="89.81818181818181" width="165" height="30" as="geometry" />
        </mxCell>
        <mxCell id="pzvjAxI7eEXyAjbACt1s-5" value="+string password" style="text;strokeColor=none;fillColor=none;align=left;verticalAlign=top;spacingLeft=4;spacingRight=4;overflow=hidden;rotatable=0;points=[[0,0.5],[1,0.5]];portConstraint=eastwest;" parent="pzvjAxI7eEXyAjbACt1s-1" vertex="1">
          <mxGeometry y="119.81818181818181" width="165" height="30" as="geometry" />
        </mxCell>
        <mxCell id="pzvjAxI7eEXyAjbACt1s-6" value="+string phone" style="text;strokeColor=none;fillColor=none;align=left;verticalAlign=top;spacingLeft=4;spacingRight=4;overflow=hidden;rotatable=0;points=[[0,0.5],[1,0.5]];portConstraint=eastwest;" parent="pzvjAxI7eEXyAjbACt1s-1" vertex="1">
          <mxGeometry y="149.8181818181818" width="165" height="30" as="geometry" />
        </mxCell>
        <mxCell id="pzvjAxI7eEXyAjbACt1s-7" value="+string address" style="text;strokeColor=none;fillColor=none;align=left;verticalAlign=top;spacingLeft=4;spacingRight=4;overflow=hidden;rotatable=0;points=[[0,0.5],[1,0.5]];portConstraint=eastwest;" parent="pzvjAxI7eEXyAjbACt1s-1" vertex="1">
          <mxGeometry y="179.8181818181818" width="165" height="30" as="geometry" />
        </mxCell>
        <mxCell id="pzvjAxI7eEXyAjbACt1s-8" style="line;strokeWidth=1;fillColor=none;align=left;verticalAlign=middle;spacingTop=-1;spacingLeft=3;spacingRight=3;rotatable=0;labelPosition=right;points=[];portConstraint=eastwest;strokeColor=inherit;" parent="pzvjAxI7eEXyAjbACt1s-1" vertex="1">
          <mxGeometry y="209.8181818181818" width="165" height="8" as="geometry" />
        </mxCell>
        <mxCell id="pzvjAxI7eEXyAjbACt1s-9" value="+register()" style="text;strokeColor=none;fillColor=none;align=left;verticalAlign=top;spacingLeft=4;spacingRight=4;overflow=hidden;rotatable=0;points=[[0,0.5],[1,0.5]];portConstraint=eastwest;" parent="pzvjAxI7eEXyAjbACt1s-1" vertex="1">
          <mxGeometry y="217.8181818181818" width="165" height="30" as="geometry" />
        </mxCell>
        <mxCell id="pzvjAxI7eEXyAjbACt1s-10" value="+login()" style="text;strokeColor=none;fillColor=none;align=left;verticalAlign=top;spacingLeft=4;spacingRight=4;overflow=hidden;rotatable=0;points=[[0,0.5],[1,0.5]];portConstraint=eastwest;" parent="pzvjAxI7eEXyAjbACt1s-1" vertex="1">
          <mxGeometry y="247.8181818181818" width="165" height="30" as="geometry" />
        </mxCell>
        <mxCell id="pzvjAxI7eEXyAjbACt1s-11" value="+updateProfile()" style="text;strokeColor=none;fillColor=none;align=left;verticalAlign=top;spacingLeft=4;spacingRight=4;overflow=hidden;rotatable=0;points=[[0,0.5],[1,0.5]];portConstraint=eastwest;" parent="pzvjAxI7eEXyAjbACt1s-1" vertex="1">
          <mxGeometry y="277.8181818181818" width="165" height="30" as="geometry" />
        </mxCell>
        <mxCell id="pzvjAxI7eEXyAjbACt1s-12" value="+deleteAccount()" style="text;strokeColor=none;fillColor=none;align=left;verticalAlign=top;spacingLeft=4;spacingRight=4;overflow=hidden;rotatable=0;points=[[0,0.5],[1,0.5]];portConstraint=eastwest;" parent="pzvjAxI7eEXyAjbACt1s-1" vertex="1">
          <mxGeometry y="307.8181818181818" width="165" height="30" as="geometry" />
        </mxCell>
        <mxCell id="pzvjAxI7eEXyAjbACt1s-13" value="JobSeeker" style="swimlane;fontStyle=1;align=center;verticalAlign=top;childLayout=stackLayout;horizontal=1;startSize=33.142857142857146;horizontalStack=0;resizeParent=1;resizeParentMax=0;resizeLast=0;collapsible=0;marginBottom=0;" parent="1" vertex="1">
          <mxGeometry x="575" y="406" width="186" height="239.14285714285714" as="geometry" />
        </mxCell>
        <mxCell id="pzvjAxI7eEXyAjbACt1s-14" value="+string resume" style="text;strokeColor=none;fillColor=none;align=left;verticalAlign=top;spacingLeft=4;spacingRight=4;overflow=hidden;rotatable=0;points=[[0,0.5],[1,0.5]];portConstraint=eastwest;" parent="pzvjAxI7eEXyAjbACt1s-13" vertex="1">
          <mxGeometry y="33.142857142857146" width="186" height="33" as="geometry" />
        </mxCell>
        <mxCell id="pzvjAxI7eEXyAjbACt1s-15" value="+string skills" style="text;strokeColor=none;fillColor=none;align=left;verticalAlign=top;spacingLeft=4;spacingRight=4;overflow=hidden;rotatable=0;points=[[0,0.5],[1,0.5]];portConstraint=eastwest;" parent="pzvjAxI7eEXyAjbACt1s-13" vertex="1">
          <mxGeometry y="66.14285714285714" width="186" height="33" as="geometry" />
        </mxCell>
        <mxCell id="pzvjAxI7eEXyAjbACt1s-16" value="+int experience" style="text;strokeColor=none;fillColor=none;align=left;verticalAlign=top;spacingLeft=4;spacingRight=4;overflow=hidden;rotatable=0;points=[[0,0.5],[1,0.5]];portConstraint=eastwest;" parent="pzvjAxI7eEXyAjbACt1s-13" vertex="1">
          <mxGeometry y="99.14285714285714" width="186" height="33" as="geometry" />
        </mxCell>
        <mxCell id="pzvjAxI7eEXyAjbACt1s-17" style="line;strokeWidth=1;fillColor=none;align=left;verticalAlign=middle;spacingTop=-1;spacingLeft=3;spacingRight=3;rotatable=0;labelPosition=right;points=[];portConstraint=eastwest;strokeColor=inherit;" parent="pzvjAxI7eEXyAjbACt1s-13" vertex="1">
          <mxGeometry y="132.14285714285714" width="186" height="8" as="geometry" />
        </mxCell>
        <mxCell id="pzvjAxI7eEXyAjbACt1s-18" value="+applyForJob()" style="text;strokeColor=none;fillColor=none;align=left;verticalAlign=top;spacingLeft=4;spacingRight=4;overflow=hidden;rotatable=0;points=[[0,0.5],[1,0.5]];portConstraint=eastwest;" parent="pzvjAxI7eEXyAjbACt1s-13" vertex="1">
          <mxGeometry y="140.14285714285714" width="186" height="33" as="geometry" />
        </mxCell>
        <mxCell id="pzvjAxI7eEXyAjbACt1s-19" value="+uploadResume()" style="text;strokeColor=none;fillColor=none;align=left;verticalAlign=top;spacingLeft=4;spacingRight=4;overflow=hidden;rotatable=0;points=[[0,0.5],[1,0.5]];portConstraint=eastwest;" parent="pzvjAxI7eEXyAjbACt1s-13" vertex="1">
          <mxGeometry y="173.14285714285714" width="186" height="33" as="geometry" />
        </mxCell>
        <mxCell id="pzvjAxI7eEXyAjbACt1s-20" value="+updateProfile()" style="text;strokeColor=none;fillColor=none;align=left;verticalAlign=top;spacingLeft=4;spacingRight=4;overflow=hidden;rotatable=0;points=[[0,0.5],[1,0.5]];portConstraint=eastwest;" parent="pzvjAxI7eEXyAjbACt1s-13" vertex="1">
          <mxGeometry y="206.14285714285714" width="186" height="33" as="geometry" />
        </mxCell>
        <mxCell id="pzvjAxI7eEXyAjbACt1s-21" value="Employer" style="swimlane;fontStyle=1;align=center;verticalAlign=top;childLayout=stackLayout;horizontal=1;startSize=33.142857142857146;horizontalStack=0;resizeParent=1;resizeParentMax=0;resizeLast=0;collapsible=0;marginBottom=0;" parent="1" vertex="1">
          <mxGeometry x="270" y="406" width="224" height="239.14285714285714" as="geometry" />
        </mxCell>
        <mxCell id="pzvjAxI7eEXyAjbACt1s-22" value="+int company_id" style="text;strokeColor=none;fillColor=none;align=left;verticalAlign=top;spacingLeft=4;spacingRight=4;overflow=hidden;rotatable=0;points=[[0,0.5],[1,0.5]];portConstraint=eastwest;" parent="pzvjAxI7eEXyAjbACt1s-21" vertex="1">
          <mxGeometry y="33.142857142857146" width="224" height="33" as="geometry" />
        </mxCell>
        <mxCell id="pzvjAxI7eEXyAjbACt1s-23" value="+string company_name" style="text;strokeColor=none;fillColor=none;align=left;verticalAlign=top;spacingLeft=4;spacingRight=4;overflow=hidden;rotatable=0;points=[[0,0.5],[1,0.5]];portConstraint=eastwest;" parent="pzvjAxI7eEXyAjbACt1s-21" vertex="1">
          <mxGeometry y="66.14285714285714" width="224" height="33" as="geometry" />
        </mxCell>
        <mxCell id="pzvjAxI7eEXyAjbACt1s-24" value="+string industry" style="text;strokeColor=none;fillColor=none;align=left;verticalAlign=top;spacingLeft=4;spacingRight=4;overflow=hidden;rotatable=0;points=[[0,0.5],[1,0.5]];portConstraint=eastwest;" parent="pzvjAxI7eEXyAjbACt1s-21" vertex="1">
          <mxGeometry y="99.14285714285714" width="224" height="33" as="geometry" />
        </mxCell>
        <mxCell id="pzvjAxI7eEXyAjbACt1s-25" style="line;strokeWidth=1;fillColor=none;align=left;verticalAlign=middle;spacingTop=-1;spacingLeft=3;spacingRight=3;rotatable=0;labelPosition=right;points=[];portConstraint=eastwest;strokeColor=inherit;" parent="pzvjAxI7eEXyAjbACt1s-21" vertex="1">
          <mxGeometry y="132.14285714285714" width="224" height="8" as="geometry" />
        </mxCell>
        <mxCell id="pzvjAxI7eEXyAjbACt1s-26" value="+postJob()" style="text;strokeColor=none;fillColor=none;align=left;verticalAlign=top;spacingLeft=4;spacingRight=4;overflow=hidden;rotatable=0;points=[[0,0.5],[1,0.5]];portConstraint=eastwest;" parent="pzvjAxI7eEXyAjbACt1s-21" vertex="1">
          <mxGeometry y="140.14285714285714" width="224" height="33" as="geometry" />
        </mxCell>
        <mxCell id="pzvjAxI7eEXyAjbACt1s-27" value="+editJob()" style="text;strokeColor=none;fillColor=none;align=left;verticalAlign=top;spacingLeft=4;spacingRight=4;overflow=hidden;rotatable=0;points=[[0,0.5],[1,0.5]];portConstraint=eastwest;" parent="pzvjAxI7eEXyAjbACt1s-21" vertex="1">
          <mxGeometry y="173.14285714285714" width="224" height="33" as="geometry" />
        </mxCell>
        <mxCell id="pzvjAxI7eEXyAjbACt1s-28" value="+deleteJob()" style="text;strokeColor=none;fillColor=none;align=left;verticalAlign=top;spacingLeft=4;spacingRight=4;overflow=hidden;rotatable=0;points=[[0,0.5],[1,0.5]];portConstraint=eastwest;" parent="pzvjAxI7eEXyAjbACt1s-21" vertex="1">
          <mxGeometry y="206.14285714285714" width="224" height="33" as="geometry" />
        </mxCell>
        <mxCell id="pzvjAxI7eEXyAjbACt1s-29" value="Admin" style="swimlane;fontStyle=1;align=center;verticalAlign=top;childLayout=stackLayout;horizontal=1;startSize=34.666666666666664;horizontalStack=0;resizeParent=1;resizeParentMax=0;resizeLast=0;collapsible=0;marginBottom=0;" parent="1" vertex="1">
          <mxGeometry x="811" y="418" width="186" height="217.66666666666666" as="geometry" />
        </mxCell>
        <mxCell id="pzvjAxI7eEXyAjbACt1s-30" value="+int admin_id" style="text;strokeColor=none;fillColor=none;align=left;verticalAlign=top;spacingLeft=4;spacingRight=4;overflow=hidden;rotatable=0;points=[[0,0.5],[1,0.5]];portConstraint=eastwest;" parent="pzvjAxI7eEXyAjbACt1s-29" vertex="1">
          <mxGeometry y="34.666666666666664" width="186" height="35" as="geometry" />
        </mxCell>
        <mxCell id="pzvjAxI7eEXyAjbACt1s-31" style="line;strokeWidth=1;fillColor=none;align=left;verticalAlign=middle;spacingTop=-1;spacingLeft=3;spacingRight=3;rotatable=0;labelPosition=right;points=[];portConstraint=eastwest;strokeColor=inherit;" parent="pzvjAxI7eEXyAjbACt1s-29" vertex="1">
          <mxGeometry y="69.66666666666666" width="186" height="8" as="geometry" />
        </mxCell>
        <mxCell id="pzvjAxI7eEXyAjbACt1s-32" value="+manageUsers()" style="text;strokeColor=none;fillColor=none;align=left;verticalAlign=top;spacingLeft=4;spacingRight=4;overflow=hidden;rotatable=0;points=[[0,0.5],[1,0.5]];portConstraint=eastwest;" parent="pzvjAxI7eEXyAjbACt1s-29" vertex="1">
          <mxGeometry y="77.66666666666666" width="186" height="35" as="geometry" />
        </mxCell>
        <mxCell id="pzvjAxI7eEXyAjbACt1s-33" value="+manageJobs()" style="text;strokeColor=none;fillColor=none;align=left;verticalAlign=top;spacingLeft=4;spacingRight=4;overflow=hidden;rotatable=0;points=[[0,0.5],[1,0.5]];portConstraint=eastwest;" parent="pzvjAxI7eEXyAjbACt1s-29" vertex="1">
          <mxGeometry y="112.66666666666666" width="186" height="35" as="geometry" />
        </mxCell>
        <mxCell id="pzvjAxI7eEXyAjbACt1s-34" value="+generateReports()" style="text;strokeColor=none;fillColor=none;align=left;verticalAlign=top;spacingLeft=4;spacingRight=4;overflow=hidden;rotatable=0;points=[[0,0.5],[1,0.5]];portConstraint=eastwest;" parent="pzvjAxI7eEXyAjbACt1s-29" vertex="1">
          <mxGeometry y="147.66666666666666" width="186" height="35" as="geometry" />
        </mxCell>
        <mxCell id="pzvjAxI7eEXyAjbACt1s-35" value="+deleteUser()" style="text;strokeColor=none;fillColor=none;align=left;verticalAlign=top;spacingLeft=4;spacingRight=4;overflow=hidden;rotatable=0;points=[[0,0.5],[1,0.5]];portConstraint=eastwest;" parent="pzvjAxI7eEXyAjbACt1s-29" vertex="1">
          <mxGeometry y="182.66666666666666" width="186" height="35" as="geometry" />
        </mxCell>
        <mxCell id="pzvjAxI7eEXyAjbACt1s-36" value="Job" style="swimlane;fontStyle=1;align=center;verticalAlign=top;childLayout=stackLayout;horizontal=1;startSize=29.818181818181817;horizontalStack=0;resizeParent=1;resizeParentMax=0;resizeLast=0;collapsible=0;marginBottom=0;" parent="1" vertex="1">
          <mxGeometry x="41" y="1034" width="178" height="337.8181818181818" as="geometry" />
        </mxCell>
        <mxCell id="pzvjAxI7eEXyAjbACt1s-37" value="+int job_id" style="text;strokeColor=none;fillColor=none;align=left;verticalAlign=top;spacingLeft=4;spacingRight=4;overflow=hidden;rotatable=0;points=[[0,0.5],[1,0.5]];portConstraint=eastwest;" parent="pzvjAxI7eEXyAjbACt1s-36" vertex="1">
          <mxGeometry y="29.818181818181817" width="178" height="30" as="geometry" />
        </mxCell>
        <mxCell id="pzvjAxI7eEXyAjbACt1s-38" value="+string title" style="text;strokeColor=none;fillColor=none;align=left;verticalAlign=top;spacingLeft=4;spacingRight=4;overflow=hidden;rotatable=0;points=[[0,0.5],[1,0.5]];portConstraint=eastwest;" parent="pzvjAxI7eEXyAjbACt1s-36" vertex="1">
          <mxGeometry y="59.81818181818181" width="178" height="30" as="geometry" />
        </mxCell>
        <mxCell id="pzvjAxI7eEXyAjbACt1s-39" value="+string description" style="text;strokeColor=none;fillColor=none;align=left;verticalAlign=top;spacingLeft=4;spacingRight=4;overflow=hidden;rotatable=0;points=[[0,0.5],[1,0.5]];portConstraint=eastwest;" parent="pzvjAxI7eEXyAjbACt1s-36" vertex="1">
          <mxGeometry y="89.81818181818181" width="178" height="30" as="geometry" />
        </mxCell>
        <mxCell id="pzvjAxI7eEXyAjbACt1s-40" value="+string type" style="text;strokeColor=none;fillColor=none;align=left;verticalAlign=top;spacingLeft=4;spacingRight=4;overflow=hidden;rotatable=0;points=[[0,0.5],[1,0.5]];portConstraint=eastwest;" parent="pzvjAxI7eEXyAjbACt1s-36" vertex="1">
          <mxGeometry y="119.81818181818181" width="178" height="30" as="geometry" />
        </mxCell>
        <mxCell id="pzvjAxI7eEXyAjbACt1s-41" value="+float salary" style="text;strokeColor=none;fillColor=none;align=left;verticalAlign=top;spacingLeft=4;spacingRight=4;overflow=hidden;rotatable=0;points=[[0,0.5],[1,0.5]];portConstraint=eastwest;" parent="pzvjAxI7eEXyAjbACt1s-36" vertex="1">
          <mxGeometry y="149.8181818181818" width="178" height="30" as="geometry" />
        </mxCell>
        <mxCell id="pzvjAxI7eEXyAjbACt1s-42" value="+string location" style="text;strokeColor=none;fillColor=none;align=left;verticalAlign=top;spacingLeft=4;spacingRight=4;overflow=hidden;rotatable=0;points=[[0,0.5],[1,0.5]];portConstraint=eastwest;" parent="pzvjAxI7eEXyAjbACt1s-36" vertex="1">
          <mxGeometry y="179.8181818181818" width="178" height="30" as="geometry" />
        </mxCell>
        <mxCell id="pzvjAxI7eEXyAjbACt1s-43" style="line;strokeWidth=1;fillColor=none;align=left;verticalAlign=middle;spacingTop=-1;spacingLeft=3;spacingRight=3;rotatable=0;labelPosition=right;points=[];portConstraint=eastwest;strokeColor=inherit;" parent="pzvjAxI7eEXyAjbACt1s-36" vertex="1">
          <mxGeometry y="209.8181818181818" width="178" height="8" as="geometry" />
        </mxCell>
        <mxCell id="pzvjAxI7eEXyAjbACt1s-44" value="+postJob()" style="text;strokeColor=none;fillColor=none;align=left;verticalAlign=top;spacingLeft=4;spacingRight=4;overflow=hidden;rotatable=0;points=[[0,0.5],[1,0.5]];portConstraint=eastwest;" parent="pzvjAxI7eEXyAjbACt1s-36" vertex="1">
          <mxGeometry y="217.8181818181818" width="178" height="30" as="geometry" />
        </mxCell>
        <mxCell id="pzvjAxI7eEXyAjbACt1s-45" value="+editJob()" style="text;strokeColor=none;fillColor=none;align=left;verticalAlign=top;spacingLeft=4;spacingRight=4;overflow=hidden;rotatable=0;points=[[0,0.5],[1,0.5]];portConstraint=eastwest;" parent="pzvjAxI7eEXyAjbACt1s-36" vertex="1">
          <mxGeometry y="247.8181818181818" width="178" height="30" as="geometry" />
        </mxCell>
        <mxCell id="pzvjAxI7eEXyAjbACt1s-46" value="+closeJob()" style="text;strokeColor=none;fillColor=none;align=left;verticalAlign=top;spacingLeft=4;spacingRight=4;overflow=hidden;rotatable=0;points=[[0,0.5],[1,0.5]];portConstraint=eastwest;" parent="pzvjAxI7eEXyAjbACt1s-36" vertex="1">
          <mxGeometry y="277.8181818181818" width="178" height="30" as="geometry" />
        </mxCell>
        <mxCell id="pzvjAxI7eEXyAjbACt1s-47" value="+viewApplications()" style="text;strokeColor=none;fillColor=none;align=left;verticalAlign=top;spacingLeft=4;spacingRight=4;overflow=hidden;rotatable=0;points=[[0,0.5],[1,0.5]];portConstraint=eastwest;" parent="pzvjAxI7eEXyAjbACt1s-36" vertex="1">
          <mxGeometry y="307.8181818181818" width="178" height="30" as="geometry" />
        </mxCell>
        <mxCell id="pzvjAxI7eEXyAjbACt1s-48" value="JobApplication" style="swimlane;fontStyle=1;align=center;verticalAlign=top;childLayout=stackLayout;horizontal=1;startSize=31.11111111111111;horizontalStack=0;resizeParent=1;resizeParentMax=0;resizeLast=0;collapsible=0;marginBottom=0;" parent="1" vertex="1">
          <mxGeometry x="544" y="696" width="248" height="287.1111111111111" as="geometry" />
        </mxCell>
        <mxCell id="pzvjAxI7eEXyAjbACt1s-49" value="+int application_id" style="text;strokeColor=none;fillColor=none;align=left;verticalAlign=top;spacingLeft=4;spacingRight=4;overflow=hidden;rotatable=0;points=[[0,0.5],[1,0.5]];portConstraint=eastwest;" parent="pzvjAxI7eEXyAjbACt1s-48" vertex="1">
          <mxGeometry y="31.11111111111111" width="248" height="31" as="geometry" />
        </mxCell>
        <mxCell id="pzvjAxI7eEXyAjbACt1s-50" value="+int job_id" style="text;strokeColor=none;fillColor=none;align=left;verticalAlign=top;spacingLeft=4;spacingRight=4;overflow=hidden;rotatable=0;points=[[0,0.5],[1,0.5]];portConstraint=eastwest;" parent="pzvjAxI7eEXyAjbACt1s-48" vertex="1">
          <mxGeometry y="62.111111111111114" width="248" height="31" as="geometry" />
        </mxCell>
        <mxCell id="pzvjAxI7eEXyAjbACt1s-51" value="+int jobseeker_id" style="text;strokeColor=none;fillColor=none;align=left;verticalAlign=top;spacingLeft=4;spacingRight=4;overflow=hidden;rotatable=0;points=[[0,0.5],[1,0.5]];portConstraint=eastwest;" parent="pzvjAxI7eEXyAjbACt1s-48" vertex="1">
          <mxGeometry y="93.11111111111111" width="248" height="31" as="geometry" />
        </mxCell>
        <mxCell id="pzvjAxI7eEXyAjbACt1s-52" value="+string status" style="text;strokeColor=none;fillColor=none;align=left;verticalAlign=top;spacingLeft=4;spacingRight=4;overflow=hidden;rotatable=0;points=[[0,0.5],[1,0.5]];portConstraint=eastwest;" parent="pzvjAxI7eEXyAjbACt1s-48" vertex="1">
          <mxGeometry y="124.11111111111111" width="248" height="31" as="geometry" />
        </mxCell>
        <mxCell id="pzvjAxI7eEXyAjbACt1s-53" value="+date date_applied" style="text;strokeColor=none;fillColor=none;align=left;verticalAlign=top;spacingLeft=4;spacingRight=4;overflow=hidden;rotatable=0;points=[[0,0.5],[1,0.5]];portConstraint=eastwest;" parent="pzvjAxI7eEXyAjbACt1s-48" vertex="1">
          <mxGeometry y="155.11111111111111" width="248" height="31" as="geometry" />
        </mxCell>
        <mxCell id="pzvjAxI7eEXyAjbACt1s-54" style="line;strokeWidth=1;fillColor=none;align=left;verticalAlign=middle;spacingTop=-1;spacingLeft=3;spacingRight=3;rotatable=0;labelPosition=right;points=[];portConstraint=eastwest;strokeColor=inherit;" parent="pzvjAxI7eEXyAjbACt1s-48" vertex="1">
          <mxGeometry y="186.11111111111111" width="248" height="8" as="geometry" />
        </mxCell>
        <mxCell id="pzvjAxI7eEXyAjbACt1s-55" value="+submitApplication()" style="text;strokeColor=none;fillColor=none;align=left;verticalAlign=top;spacingLeft=4;spacingRight=4;overflow=hidden;rotatable=0;points=[[0,0.5],[1,0.5]];portConstraint=eastwest;" parent="pzvjAxI7eEXyAjbACt1s-48" vertex="1">
          <mxGeometry y="194.11111111111111" width="248" height="31" as="geometry" />
        </mxCell>
        <mxCell id="pzvjAxI7eEXyAjbACt1s-56" value="+withdrawApplication()" style="text;strokeColor=none;fillColor=none;align=left;verticalAlign=top;spacingLeft=4;spacingRight=4;overflow=hidden;rotatable=0;points=[[0,0.5],[1,0.5]];portConstraint=eastwest;" parent="pzvjAxI7eEXyAjbACt1s-48" vertex="1">
          <mxGeometry y="225.11111111111111" width="248" height="31" as="geometry" />
        </mxCell>
        <mxCell id="pzvjAxI7eEXyAjbACt1s-57" value="+checkStatus()" style="text;strokeColor=none;fillColor=none;align=left;verticalAlign=top;spacingLeft=4;spacingRight=4;overflow=hidden;rotatable=0;points=[[0,0.5],[1,0.5]];portConstraint=eastwest;" parent="pzvjAxI7eEXyAjbACt1s-48" vertex="1">
          <mxGeometry y="256.1111111111111" width="248" height="31" as="geometry" />
        </mxCell>
        <mxCell id="pzvjAxI7eEXyAjbACt1s-58" value="Company" style="swimlane;fontStyle=1;align=center;verticalAlign=top;childLayout=stackLayout;horizontal=1;startSize=33.142857142857146;horizontalStack=0;resizeParent=1;resizeParentMax=0;resizeLast=0;collapsible=0;marginBottom=0;" parent="1" vertex="1">
          <mxGeometry x="271" y="720" width="224" height="239.14285714285714" as="geometry" />
        </mxCell>
        <mxCell id="pzvjAxI7eEXyAjbACt1s-59" value="+int company_id" style="text;strokeColor=none;fillColor=none;align=left;verticalAlign=top;spacingLeft=4;spacingRight=4;overflow=hidden;rotatable=0;points=[[0,0.5],[1,0.5]];portConstraint=eastwest;" parent="pzvjAxI7eEXyAjbACt1s-58" vertex="1">
          <mxGeometry y="33.142857142857146" width="224" height="33" as="geometry" />
        </mxCell>
        <mxCell id="pzvjAxI7eEXyAjbACt1s-60" value="+string name" style="text;strokeColor=none;fillColor=none;align=left;verticalAlign=top;spacingLeft=4;spacingRight=4;overflow=hidden;rotatable=0;points=[[0,0.5],[1,0.5]];portConstraint=eastwest;" parent="pzvjAxI7eEXyAjbACt1s-58" vertex="1">
          <mxGeometry y="66.14285714285714" width="224" height="33" as="geometry" />
        </mxCell>
        <mxCell id="pzvjAxI7eEXyAjbACt1s-61" value="+string industry" style="text;strokeColor=none;fillColor=none;align=left;verticalAlign=top;spacingLeft=4;spacingRight=4;overflow=hidden;rotatable=0;points=[[0,0.5],[1,0.5]];portConstraint=eastwest;" parent="pzvjAxI7eEXyAjbACt1s-58" vertex="1">
          <mxGeometry y="99.14285714285714" width="224" height="33" as="geometry" />
        </mxCell>
        <mxCell id="pzvjAxI7eEXyAjbACt1s-62" value="+int size" style="text;strokeColor=none;fillColor=none;align=left;verticalAlign=top;spacingLeft=4;spacingRight=4;overflow=hidden;rotatable=0;points=[[0,0.5],[1,0.5]];portConstraint=eastwest;" parent="pzvjAxI7eEXyAjbACt1s-58" vertex="1">
          <mxGeometry y="132.14285714285714" width="224" height="33" as="geometry" />
        </mxCell>
        <mxCell id="pzvjAxI7eEXyAjbACt1s-63" value="+string location" style="text;strokeColor=none;fillColor=none;align=left;verticalAlign=top;spacingLeft=4;spacingRight=4;overflow=hidden;rotatable=0;points=[[0,0.5],[1,0.5]];portConstraint=eastwest;" parent="pzvjAxI7eEXyAjbACt1s-58" vertex="1">
          <mxGeometry y="165.14285714285714" width="224" height="33" as="geometry" />
        </mxCell>
        <mxCell id="pzvjAxI7eEXyAjbACt1s-64" style="line;strokeWidth=1;fillColor=none;align=left;verticalAlign=middle;spacingTop=-1;spacingLeft=3;spacingRight=3;rotatable=0;labelPosition=right;points=[];portConstraint=eastwest;strokeColor=inherit;" parent="pzvjAxI7eEXyAjbACt1s-58" vertex="1">
          <mxGeometry y="198.14285714285714" width="224" height="8" as="geometry" />
        </mxCell>
        <mxCell id="pzvjAxI7eEXyAjbACt1s-65" value="+viewCompanyProfile()" style="text;strokeColor=none;fillColor=none;align=left;verticalAlign=top;spacingLeft=4;spacingRight=4;overflow=hidden;rotatable=0;points=[[0,0.5],[1,0.5]];portConstraint=eastwest;" parent="pzvjAxI7eEXyAjbACt1s-58" vertex="1">
          <mxGeometry y="206.14285714285714" width="224" height="33" as="geometry" />
        </mxCell>
        <mxCell id="pzvjAxI7eEXyAjbACt1s-66" value="Interview" style="swimlane;fontStyle=1;align=center;verticalAlign=top;childLayout=stackLayout;horizontal=1;startSize=31.11111111111111;horizontalStack=0;resizeParent=1;resizeParentMax=0;resizeLast=0;collapsible=0;marginBottom=0;" parent="1" vertex="1">
          <mxGeometry x="565" y="1058" width="226" height="287.1111111111111" as="geometry" />
        </mxCell>
        <mxCell id="pzvjAxI7eEXyAjbACt1s-67" value="+int interview_id" style="text;strokeColor=none;fillColor=none;align=left;verticalAlign=top;spacingLeft=4;spacingRight=4;overflow=hidden;rotatable=0;points=[[0,0.5],[1,0.5]];portConstraint=eastwest;" parent="pzvjAxI7eEXyAjbACt1s-66" vertex="1">
          <mxGeometry y="31.11111111111111" width="226" height="31" as="geometry" />
        </mxCell>
        <mxCell id="pzvjAxI7eEXyAjbACt1s-68" value="+int job_application_id" style="text;strokeColor=none;fillColor=none;align=left;verticalAlign=top;spacingLeft=4;spacingRight=4;overflow=hidden;rotatable=0;points=[[0,0.5],[1,0.5]];portConstraint=eastwest;" parent="pzvjAxI7eEXyAjbACt1s-66" vertex="1">
          <mxGeometry y="62.111111111111114" width="226" height="31" as="geometry" />
        </mxCell>
        <mxCell id="pzvjAxI7eEXyAjbACt1s-69" value="+date date" style="text;strokeColor=none;fillColor=none;align=left;verticalAlign=top;spacingLeft=4;spacingRight=4;overflow=hidden;rotatable=0;points=[[0,0.5],[1,0.5]];portConstraint=eastwest;" parent="pzvjAxI7eEXyAjbACt1s-66" vertex="1">
          <mxGeometry y="93.11111111111111" width="226" height="31" as="geometry" />
        </mxCell>
        <mxCell id="pzvjAxI7eEXyAjbACt1s-70" value="+string time" style="text;strokeColor=none;fillColor=none;align=left;verticalAlign=top;spacingLeft=4;spacingRight=4;overflow=hidden;rotatable=0;points=[[0,0.5],[1,0.5]];portConstraint=eastwest;" parent="pzvjAxI7eEXyAjbACt1s-66" vertex="1">
          <mxGeometry y="124.11111111111111" width="226" height="31" as="geometry" />
        </mxCell>
        <mxCell id="pzvjAxI7eEXyAjbACt1s-71" value="+string location" style="text;strokeColor=none;fillColor=none;align=left;verticalAlign=top;spacingLeft=4;spacingRight=4;overflow=hidden;rotatable=0;points=[[0,0.5],[1,0.5]];portConstraint=eastwest;" parent="pzvjAxI7eEXyAjbACt1s-66" vertex="1">
          <mxGeometry y="155.11111111111111" width="226" height="31" as="geometry" />
        </mxCell>
        <mxCell id="pzvjAxI7eEXyAjbACt1s-72" style="line;strokeWidth=1;fillColor=none;align=left;verticalAlign=middle;spacingTop=-1;spacingLeft=3;spacingRight=3;rotatable=0;labelPosition=right;points=[];portConstraint=eastwest;strokeColor=inherit;" parent="pzvjAxI7eEXyAjbACt1s-66" vertex="1">
          <mxGeometry y="186.11111111111111" width="226" height="8" as="geometry" />
        </mxCell>
        <mxCell id="pzvjAxI7eEXyAjbACt1s-73" value="+scheduleInterview()" style="text;strokeColor=none;fillColor=none;align=left;verticalAlign=top;spacingLeft=4;spacingRight=4;overflow=hidden;rotatable=0;points=[[0,0.5],[1,0.5]];portConstraint=eastwest;" parent="pzvjAxI7eEXyAjbACt1s-66" vertex="1">
          <mxGeometry y="194.11111111111111" width="226" height="31" as="geometry" />
        </mxCell>
        <mxCell id="pzvjAxI7eEXyAjbACt1s-74" value="+rescheduleInterview()" style="text;strokeColor=none;fillColor=none;align=left;verticalAlign=top;spacingLeft=4;spacingRight=4;overflow=hidden;rotatable=0;points=[[0,0.5],[1,0.5]];portConstraint=eastwest;" parent="pzvjAxI7eEXyAjbACt1s-66" vertex="1">
          <mxGeometry y="225.11111111111111" width="226" height="31" as="geometry" />
        </mxCell>
        <mxCell id="pzvjAxI7eEXyAjbACt1s-75" value="+cancelInterview()" style="text;strokeColor=none;fillColor=none;align=left;verticalAlign=top;spacingLeft=4;spacingRight=4;overflow=hidden;rotatable=0;points=[[0,0.5],[1,0.5]];portConstraint=eastwest;" parent="pzvjAxI7eEXyAjbACt1s-66" vertex="1">
          <mxGeometry y="256.1111111111111" width="226" height="31" as="geometry" />
        </mxCell>
        <mxCell id="pzvjAxI7eEXyAjbACt1s-76" value="Search" style="swimlane;fontStyle=1;align=center;verticalAlign=top;childLayout=stackLayout;horizontal=1;startSize=33.142857142857146;horizontalStack=0;resizeParent=1;resizeParentMax=0;resizeLast=0;collapsible=0;marginBottom=0;" parent="1" vertex="1">
          <mxGeometry x="20" y="720" width="201" height="239.14285714285714" as="geometry" />
        </mxCell>
        <mxCell id="pzvjAxI7eEXyAjbACt1s-77" value="+int search_id" style="text;strokeColor=none;fillColor=none;align=left;verticalAlign=top;spacingLeft=4;spacingRight=4;overflow=hidden;rotatable=0;points=[[0,0.5],[1,0.5]];portConstraint=eastwest;" parent="pzvjAxI7eEXyAjbACt1s-76" vertex="1">
          <mxGeometry y="33.142857142857146" width="201" height="33" as="geometry" />
        </mxCell>
        <mxCell id="pzvjAxI7eEXyAjbACt1s-78" value="+string query" style="text;strokeColor=none;fillColor=none;align=left;verticalAlign=top;spacingLeft=4;spacingRight=4;overflow=hidden;rotatable=0;points=[[0,0.5],[1,0.5]];portConstraint=eastwest;" parent="pzvjAxI7eEXyAjbACt1s-76" vertex="1">
          <mxGeometry y="66.14285714285714" width="201" height="33" as="geometry" />
        </mxCell>
        <mxCell id="pzvjAxI7eEXyAjbACt1s-79" value="+string filters" style="text;strokeColor=none;fillColor=none;align=left;verticalAlign=top;spacingLeft=4;spacingRight=4;overflow=hidden;rotatable=0;points=[[0,0.5],[1,0.5]];portConstraint=eastwest;" parent="pzvjAxI7eEXyAjbACt1s-76" vertex="1">
          <mxGeometry y="99.14285714285714" width="201" height="33" as="geometry" />
        </mxCell>
        <mxCell id="pzvjAxI7eEXyAjbACt1s-80" style="line;strokeWidth=1;fillColor=none;align=left;verticalAlign=middle;spacingTop=-1;spacingLeft=3;spacingRight=3;rotatable=0;labelPosition=right;points=[];portConstraint=eastwest;strokeColor=inherit;" parent="pzvjAxI7eEXyAjbACt1s-76" vertex="1">
          <mxGeometry y="132.14285714285714" width="201" height="8" as="geometry" />
        </mxCell>
        <mxCell id="pzvjAxI7eEXyAjbACt1s-81" value="+searchJobs()" style="text;strokeColor=none;fillColor=none;align=left;verticalAlign=top;spacingLeft=4;spacingRight=4;overflow=hidden;rotatable=0;points=[[0,0.5],[1,0.5]];portConstraint=eastwest;" parent="pzvjAxI7eEXyAjbACt1s-76" vertex="1">
          <mxGeometry y="140.14285714285714" width="201" height="33" as="geometry" />
        </mxCell>
        <mxCell id="pzvjAxI7eEXyAjbACt1s-82" value="+saveSearch()" style="text;strokeColor=none;fillColor=none;align=left;verticalAlign=top;spacingLeft=4;spacingRight=4;overflow=hidden;rotatable=0;points=[[0,0.5],[1,0.5]];portConstraint=eastwest;" parent="pzvjAxI7eEXyAjbACt1s-76" vertex="1">
          <mxGeometry y="173.14285714285714" width="201" height="33" as="geometry" />
        </mxCell>
        <mxCell id="pzvjAxI7eEXyAjbACt1s-83" value="+viewSearchHistory()" style="text;strokeColor=none;fillColor=none;align=left;verticalAlign=top;spacingLeft=4;spacingRight=4;overflow=hidden;rotatable=0;points=[[0,0.5],[1,0.5]];portConstraint=eastwest;" parent="pzvjAxI7eEXyAjbACt1s-76" vertex="1">
          <mxGeometry y="206.14285714285714" width="201" height="33" as="geometry" />
        </mxCell>
        <mxCell id="pzvjAxI7eEXyAjbACt1s-84" value="Role" style="swimlane;fontStyle=1;align=center;verticalAlign=top;childLayout=stackLayout;horizontal=1;startSize=34.666666666666664;horizontalStack=0;resizeParent=1;resizeParentMax=0;resizeLast=0;collapsible=0;marginBottom=0;" parent="1" vertex="1">
          <mxGeometry x="1047" y="418" width="177" height="217.66666666666666" as="geometry" />
        </mxCell>
        <mxCell id="pzvjAxI7eEXyAjbACt1s-85" value="+int role_id" style="text;strokeColor=none;fillColor=none;align=left;verticalAlign=top;spacingLeft=4;spacingRight=4;overflow=hidden;rotatable=0;points=[[0,0.5],[1,0.5]];portConstraint=eastwest;" parent="pzvjAxI7eEXyAjbACt1s-84" vertex="1">
          <mxGeometry y="34.666666666666664" width="177" height="35" as="geometry" />
        </mxCell>
        <mxCell id="pzvjAxI7eEXyAjbACt1s-86" value="+string role_name" style="text;strokeColor=none;fillColor=none;align=left;verticalAlign=top;spacingLeft=4;spacingRight=4;overflow=hidden;rotatable=0;points=[[0,0.5],[1,0.5]];portConstraint=eastwest;" parent="pzvjAxI7eEXyAjbACt1s-84" vertex="1">
          <mxGeometry y="69.66666666666666" width="177" height="35" as="geometry" />
        </mxCell>
        <mxCell id="pzvjAxI7eEXyAjbACt1s-87" value="+string permissions" style="text;strokeColor=none;fillColor=none;align=left;verticalAlign=top;spacingLeft=4;spacingRight=4;overflow=hidden;rotatable=0;points=[[0,0.5],[1,0.5]];portConstraint=eastwest;" parent="pzvjAxI7eEXyAjbACt1s-84" vertex="1">
          <mxGeometry y="104.66666666666666" width="177" height="35" as="geometry" />
        </mxCell>
        <mxCell id="pzvjAxI7eEXyAjbACt1s-88" style="line;strokeWidth=1;fillColor=none;align=left;verticalAlign=middle;spacingTop=-1;spacingLeft=3;spacingRight=3;rotatable=0;labelPosition=right;points=[];portConstraint=eastwest;strokeColor=inherit;" parent="pzvjAxI7eEXyAjbACt1s-84" vertex="1">
          <mxGeometry y="139.66666666666666" width="177" height="8" as="geometry" />
        </mxCell>
        <mxCell id="pzvjAxI7eEXyAjbACt1s-89" value="+assignRole()" style="text;strokeColor=none;fillColor=none;align=left;verticalAlign=top;spacingLeft=4;spacingRight=4;overflow=hidden;rotatable=0;points=[[0,0.5],[1,0.5]];portConstraint=eastwest;" parent="pzvjAxI7eEXyAjbACt1s-84" vertex="1">
          <mxGeometry y="147.66666666666666" width="177" height="35" as="geometry" />
        </mxCell>
        <mxCell id="pzvjAxI7eEXyAjbACt1s-90" value="+removeRole()" style="text;strokeColor=none;fillColor=none;align=left;verticalAlign=top;spacingLeft=4;spacingRight=4;overflow=hidden;rotatable=0;points=[[0,0.5],[1,0.5]];portConstraint=eastwest;" parent="pzvjAxI7eEXyAjbACt1s-84" vertex="1">
          <mxGeometry y="182.66666666666666" width="177" height="35" as="geometry" />
        </mxCell>
        <mxCell id="pzvjAxI7eEXyAjbACt1s-91" value="" style="curved=1;startArrow=block;startSize=16;startFill=0;endArrow=none;exitX=0;exitY=0.9;entryX=0.425;entryY=0;rounded=0;entryDx=0;entryDy=0;entryPerimeter=0;" parent="1" source="pzvjAxI7eEXyAjbACt1s-1" target="pzvjAxI7eEXyAjbACt1s-13" edge="1">
          <mxGeometry relative="1" as="geometry">
            <Array as="points">
              <mxPoint x="668" y="381" />
            </Array>
          </mxGeometry>
        </mxCell>
        <mxCell id="pzvjAxI7eEXyAjbACt1s-92" value="" style="curved=1;startArrow=block;startSize=16;startFill=0;endArrow=none;exitX=0;exitY=0.62;entryX=0.42;entryY=0.004;rounded=0;entryDx=0;entryDy=0;entryPerimeter=0;" parent="1" source="pzvjAxI7eEXyAjbACt1s-1" target="pzvjAxI7eEXyAjbACt1s-21" edge="1">
          <mxGeometry relative="1" as="geometry">
            <Array as="points">
              <mxPoint x="550" y="310" />
            </Array>
          </mxGeometry>
        </mxCell>
        <mxCell id="pzvjAxI7eEXyAjbACt1s-93" value="" style="curved=1;startArrow=block;startSize=16;startFill=0;endArrow=none;exitX=1;exitY=0.9;rounded=0;entryX=0.608;entryY=-0.009;entryDx=0;entryDy=0;entryPerimeter=0;" parent="1" source="pzvjAxI7eEXyAjbACt1s-1" target="pzvjAxI7eEXyAjbACt1s-29" edge="1">
          <mxGeometry relative="1" as="geometry">
            <Array as="points">
              <mxPoint x="904" y="381" />
            </Array>
            <mxPoint x="930" y="410" as="targetPoint" />
          </mxGeometry>
        </mxCell>
        <mxCell id="pzvjAxI7eEXyAjbACt1s-94" value="" style="curved=1;startArrow=none;endArrow=none;exitX=0.5;exitY=1;entryX=0.5;entryY=0;rounded=0;" parent="1" source="pzvjAxI7eEXyAjbACt1s-21" target="pzvjAxI7eEXyAjbACt1s-58" edge="1">
          <mxGeometry relative="1" as="geometry">
            <Array as="points" />
          </mxGeometry>
        </mxCell>
        <mxCell id="pzvjAxI7eEXyAjbACt1s-95" value="1" style="edgeLabel;resizable=0;labelBackgroundColor=none;fontSize=12;align=right;verticalAlign=top;" parent="pzvjAxI7eEXyAjbACt1s-94" vertex="1">
          <mxGeometry x="-1" relative="1" as="geometry" />
        </mxCell>
        <mxCell id="pzvjAxI7eEXyAjbACt1s-96" value="*" style="edgeLabel;resizable=0;labelBackgroundColor=none;fontSize=12;align=left;verticalAlign=bottom;" parent="pzvjAxI7eEXyAjbACt1s-94" vertex="1">
          <mxGeometry x="1" relative="1" as="geometry" />
        </mxCell>
        <mxCell id="pzvjAxI7eEXyAjbACt1s-97" value="" style="curved=1;startArrow=none;endArrow=none;exitX=0.5;exitY=1;entryX=0.5;entryY=0;rounded=0;" parent="1" source="pzvjAxI7eEXyAjbACt1s-13" target="pzvjAxI7eEXyAjbACt1s-48" edge="1">
          <mxGeometry relative="1" as="geometry">
            <Array as="points" />
          </mxGeometry>
        </mxCell>
        <mxCell id="pzvjAxI7eEXyAjbACt1s-98" value="1" style="edgeLabel;resizable=0;labelBackgroundColor=none;fontSize=12;align=right;verticalAlign=top;" parent="pzvjAxI7eEXyAjbACt1s-97" vertex="1">
          <mxGeometry x="-1" relative="1" as="geometry" />
        </mxCell>
        <mxCell id="pzvjAxI7eEXyAjbACt1s-99" value="*" style="edgeLabel;resizable=0;labelBackgroundColor=none;fontSize=12;align=left;verticalAlign=bottom;" parent="pzvjAxI7eEXyAjbACt1s-97" vertex="1">
          <mxGeometry x="1" relative="1" as="geometry" />
        </mxCell>
        <mxCell id="pzvjAxI7eEXyAjbACt1s-100" value="" style="curved=1;startArrow=none;endArrow=none;entryX=1;entryY=0.31;rounded=0;" parent="1" edge="1">
          <mxGeometry relative="1" as="geometry">
            <Array as="points">
              <mxPoint x="406" y="1039.05" />
            </Array>
            <mxPoint x="540" y="960" as="sourcePoint" />
            <mxPoint x="221" y="1168.7736363636363" as="targetPoint" />
          </mxGeometry>
        </mxCell>
        <mxCell id="pzvjAxI7eEXyAjbACt1s-101" value="*" style="edgeLabel;resizable=0;labelBackgroundColor=none;fontSize=12;align=right;verticalAlign=top;" parent="pzvjAxI7eEXyAjbACt1s-100" vertex="1">
          <mxGeometry x="-1" relative="1" as="geometry" />
        </mxCell>
        <mxCell id="pzvjAxI7eEXyAjbACt1s-102" value="1" style="edgeLabel;resizable=0;labelBackgroundColor=none;fontSize=12;align=left;verticalAlign=bottom;" parent="pzvjAxI7eEXyAjbACt1s-100" vertex="1">
          <mxGeometry x="1" relative="1" as="geometry" />
        </mxCell>
        <mxCell id="pzvjAxI7eEXyAjbACt1s-103" value="" style="curved=1;startArrow=none;endArrow=none;exitX=0.54;exitY=1;entryX=0.5;entryY=0;rounded=0;" parent="1" source="pzvjAxI7eEXyAjbACt1s-48" target="pzvjAxI7eEXyAjbACt1s-66" edge="1">
          <mxGeometry relative="1" as="geometry">
            <Array as="points">
              <mxPoint x="678" y="1009" />
            </Array>
          </mxGeometry>
        </mxCell>
        <mxCell id="pzvjAxI7eEXyAjbACt1s-104" value="1" style="edgeLabel;resizable=0;labelBackgroundColor=none;fontSize=12;align=right;verticalAlign=top;" parent="pzvjAxI7eEXyAjbACt1s-103" vertex="1">
          <mxGeometry x="-1" relative="1" as="geometry" />
        </mxCell>
        <mxCell id="pzvjAxI7eEXyAjbACt1s-105" value="*" style="edgeLabel;resizable=0;labelBackgroundColor=none;fontSize=12;align=left;verticalAlign=bottom;" parent="pzvjAxI7eEXyAjbACt1s-103" vertex="1">
          <mxGeometry x="1" relative="1" as="geometry" />
        </mxCell>
        <mxCell id="pzvjAxI7eEXyAjbACt1s-106" value="" style="curved=1;startArrow=none;endArrow=none;exitX=0.5;exitY=1;entryX=0.45;entryY=0;rounded=0;" parent="1" source="pzvjAxI7eEXyAjbACt1s-76" target="pzvjAxI7eEXyAjbACt1s-36" edge="1">
          <mxGeometry relative="1" as="geometry">
            <Array as="points">
              <mxPoint x="120" y="1009" />
            </Array>
          </mxGeometry>
        </mxCell>
        <mxCell id="pzvjAxI7eEXyAjbACt1s-107" value="1" style="edgeLabel;resizable=0;labelBackgroundColor=none;fontSize=12;align=right;verticalAlign=top;" parent="pzvjAxI7eEXyAjbACt1s-106" vertex="1">
          <mxGeometry x="-1" relative="1" as="geometry" />
        </mxCell>
        <mxCell id="pzvjAxI7eEXyAjbACt1s-108" value="*" style="edgeLabel;resizable=0;labelBackgroundColor=none;fontSize=12;align=left;verticalAlign=bottom;" parent="pzvjAxI7eEXyAjbACt1s-106" vertex="1">
          <mxGeometry x="1" relative="1" as="geometry" />
        </mxCell>
        <mxCell id="pzvjAxI7eEXyAjbACt1s-109" value="" style="curved=1;startArrow=none;endArrow=none;exitX=1;exitY=0.64;entryX=0.627;entryY=-0.014;rounded=0;entryDx=0;entryDy=0;entryPerimeter=0;" parent="1" source="pzvjAxI7eEXyAjbACt1s-1" target="pzvjAxI7eEXyAjbACt1s-84" edge="1">
          <mxGeometry relative="1" as="geometry">
            <Array as="points" />
          </mxGeometry>
        </mxCell>
        <mxCell id="pzvjAxI7eEXyAjbACt1s-110" value="1" style="edgeLabel;resizable=0;labelBackgroundColor=none;fontSize=12;align=left;verticalAlign=top;" parent="pzvjAxI7eEXyAjbACt1s-109" vertex="1">
          <mxGeometry x="-1" relative="1" as="geometry" />
        </mxCell>
        <mxCell id="pzvjAxI7eEXyAjbACt1s-111" value="1" style="edgeLabel;resizable=0;labelBackgroundColor=none;fontSize=12;align=right;verticalAlign=bottom;" parent="pzvjAxI7eEXyAjbACt1s-109" vertex="1">
          <mxGeometry x="1" relative="1" as="geometry" />
        </mxCell>
      </root>
    </mxGraphModel>
  </diagram>
</mxfile>
